:SAMPLES-PER-SECOND 30
:FULLY-SPECIFIED
:DEGREES
327
root  -64.0028 40.9948 -2.30397 167.072 76.4578 161.459
RightUpLeg  7.74661 -10.8827 -8.22598
RightLeg  6.28765 -23.2258 3.84735
RightFoot  -11.7732 -0.0589755 5.37619
RightToes  0.000482159 0.542163 -0.142577
Spine  9.83767 -0.264835 1.36024
Spine1  0.603952 0.547098 -2.9187
HEad  -7.27544 -3.84295 1.36733
LeftShoulder1  6.39717 -9.84942 -41.5445
LeftArm  -15.4655 31.2206 -27.0105
LeftForeArm  36.309 -29.4118 -4.39999
LeftHand  -0.25398 0.0180481 5.50724
RightShoulder  3.89208 6.36441 33.4913
RightArm  -2.0441 -21.1274 42.1911
RightForeArm  -2.11028 23.1294 5.10087
RightHand  -1.89376 4.79551 -21.6961
LeftUpLeg  -8.63081 7.48544 -2.6485
LeftLeg  -11.764 69.6666 -22.1659
LeftFoot  -2.45747 -0.827781 10.8145
LeftToes  1.06246e-005 4.65855e-005 -8.18503e-006
328
root  -64.7087 40.9923 -2.07276 166.962 78.8452 160.902
RightUpLeg  5.90631 -10.5919 -7.20942
RightLeg  5.73025 -21.4667 3.86741
RightFoot  -11.7008 -0.0685165 3.50457
RightToes  0.000482159 0.542163 -0.142577
Spine  10.2062 -0.230507 3.0432
Spine1  0.0745461 0.71038 -3.19631
HEad  -7.93752 -3.06507 0.988681
LeftShoulder1  6.43958 -9.90261 -41.6628
LeftArm  -16.5969 30.311 -26.8663
LeftForeArm  36.5125 -30.1088 -4.54645
LeftHand  -0.25398 0.0180481 5.50724
RightShoulder  3.8949 6.38727 33.4292
RightArm  -1.79496 -20.5711 42.1136
RightForeArm  -1.6728 25.0987 5.4551
RightHand  -1.93064 4.89349 -21.9032
LeftUpLeg  -9.98391 8.64735 -1.55018
LeftLeg  -14.0086 70.7309 -25.0954
LeftFoot  -2.02707 -0.954621 11.8221
LeftToes  1.06246e-005 4.65855e-005 -8.18503e-006
329
root  -65.455 40.9983 -1.83684 169.273 80.9922 162.932
RightUpLeg  3.8279 -10.0721 -5.86834
RightLeg  6.02537 -20.4184 3.88422
RightFoot  -11.6227 -0.0722919 2.62169
RightToes  0.000482159 0.542163 -0.142577
Spine  11.0694 -0.182898 5.02048
Spine1  -0.480569 0.91099 -3.43839
HEad  -9.1165 -2.19697 0.657243
LeftShoulder1  6.52321 -10.0668 -41.6973
LeftArm  -17.9946 29.3587 -27.1381
LeftForeArm  36.3654 -31.0229 -4.76374
LeftHand  -0.25398 0.0180481 5.50724
RightShoulder  3.90654 6.42404 33.4008
RightArm  -1.20594 -19.7112 41.7354
RightForeArm  -0.872447 26.5544 5.756
RightHand  -1.94201 5.04578 -21.7212
LeftUpLeg  -12.103 12.0968 -0.414313
LeftLeg  -7.22914 67.9667 -19.2862
LeftFoot  -1.31448 -1.04917 12.0013
LeftToes  1.06246e-005 4.65855e-005 -8.18503e-006
330
root  -66.1517 41.0337 -1.58467 171.841 82.5439 165.558
RightUpLeg  2.17533 -9.91506 -4.89403
RightLeg  6.5952 -19.6411 4.12958
RightFoot  -11.2974 -0.0768821 1.64887
RightToes  0.000482159 0.542163 -0.142577
Spine  12.0635 -0.188512 5.94676
Spine1  -0.716045 0.856075 -2.82941
HEad  -10.3272 -1.24025 0.656767
LeftShoulder1  6.60684 -10.2519 -41.6626
LeftArm  -18.9641 28.5435 -27.556
LeftForeArm  36.1585 -32.1676 -5.04292
LeftHand  -0.25398 0.0180481 5.50724
RightShoulder  3.96013 6.53862 33.4853
RightArm  -0.230379 -18.4998 41.0852
RightForeArm  -0.591912 27.3388 5.92513
RightHand  -1.9133 5.02149 -21.46
LeftUpLeg  -14.8151 19.4974 -0.780769
LeftLeg  4.12072 56.5648 -8.34549
LeftFoot  0.389321 -1.13067 10.9668
LeftToes  1.06246e-005 4.65855e-005 -8.18503e-006
331
root  -66.7321 41.081 -1.32311 171.536 83.2123 165.515
RightUpLeg  1.01424 -10.1061 -4.562
RightLeg  7.35424 -18.9294 4.27866
RightFoot  -10.8525 -0.0762624 0.60848
RightToes  0.000482159 0.542163 -0.142577
Spine  12.8363 -0.256716 5.37027
Spine1  -0.91844 0.413748 -1.20669
HEad  -10.8399 -0.331941 1.00139
LeftShoulder1  6.68823 -10.4381 -41.6102
LeftArm  -19.07 28.0035 -27.6932
LeftForeArm  36.3937 -33.2761 -5.29606
LeftHand  -0.25398 0.0180481 5.50724
RightShoulder  4.0108 6.6504 33.5505
RightArm  0.304996 -17.4265 40.5545
RightForeArm  -0.301435 27.4041 5.92559
RightHand  -1.89253 5.03847 -21.204
LeftUpLeg  -17.4537 26.758 -2.69134
LeftLeg  9.08166 39.1429 -2.92264
LeftFoot  2.98083 -1.09901 8.62766
LeftToes  1.06246e-005 4.65855e-005 -8.18503e-006
332
root  -67.2016 41.1226 -1.08331 168.206 83.2158 162.43
RightUpLeg  0.182734 -10.3091 -4.61462
RightLeg  7.97979 -18.5515 4.1459
RightFoot  -10.57 -0.0722351 0.0746604
RightToes  0.000482159 0.542163 -0.142577
Spine  13.3101 -0.357473 4.2873
Spine1  -1.4159 -0.125429 0.419939
HEad  -10.4072 0.105761 1.51165
LeftShoulder1  6.76188 -10.6314 -41.486
LeftArm  -18.3073 27.5929 -27.4239
LeftForeArm  37.5814 -34.0388 -5.41789
LeftHand  -0.25398 0.0180481 5.50724
RightShoulder  4.00179 6.65838 33.4313
RightArm  -0.19496 -17.0459 40.5361
RightForeArm  0.858157 26.8541 5.73581
RightHand  -1.89783 5.4111 -20.5675
LeftUpLeg  -19.2852 29.2145 -4.36524
LeftLeg  11.0792 22.9623 -0.396737
LeftFoot  4.6057 -0.709555 4.82899
LeftToes  1.06246e-005 4.65855e-005 -8.18503e-006
333
root  -67.5904 41.1615 -0.900609 163.966 83.1819 158.348
RightUpLeg  -0.525774 -10.3544 -4.7138
RightLeg  8.37056 -18.5065 3.82995
RightFoot  -10.3828 -0.0691996 -0.131372
RightToes  0.000482159 0.542163 -0.142577
Spine  13.374 -0.432585 3.9079
Spine1  -1.85283 -0.356526 0.929551
HEad  -9.54858 0.14434 1.74921
LeftShoulder1  6.77719 -10.7515 -41.2099
LeftArm  -17.1244 26.9792 -26.9886
LeftForeArm  39.6084 -34.348 -5.38403
LeftHand  -0.25398 0.0180481 5.50724
RightShoulder  3.97664 6.64978 33.2184
RightArm  -1.18737 -17.3561 40.8375
RightForeArm  1.94044 26.026 5.48776
RightHand  -1.88674 5.85816 -19.6756
LeftUpLeg  -19.7472 27.2853 -4.68943
LeftLeg  12.7182 11.1945 1.01754
LeftFoot  3.2789 -0.137746 0.863414
LeftToes  1.06246e-005 4.65855e-005 -8.18503e-006
